<svg width="25" height="12" viewBox="0 0 25 12" fill="none" xmlns="http://www.w3.org/2000/svg">
<g id="Battery">
<path id="Rectangle" fill-rule="evenodd" clip-rule="evenodd" d="M3.58944 0.160156H18.4106C19.6587 0.160156 20.1113 0.290112 20.5676 0.534142C21.0239 0.778172 21.382 1.13628 21.626 1.59257C21.87 2.04887 22 2.50147 22 3.7496V8.07072C22 9.31884 21.87 9.77144 21.626 10.2277C21.382 10.684 21.0239 11.0421 20.5676 11.2862C20.1113 11.5302 19.6587 11.6602 18.4106 11.6602H3.58944C2.34131 11.6602 1.88871 11.5302 1.43242 11.2862C0.97612 11.0421 0.618016 10.684 0.373986 10.2277C0.129956 9.77144 0 9.31884 0 8.07072V3.7496C0 2.50147 0.129956 2.04887 0.373986 1.59257C0.618016 1.13628 0.97612 0.778172 1.43242 0.534142C1.88871 0.290112 2.34131 0.160156 3.58944 0.160156ZM3.58944 1.16016C2.60246 1.16016 2.2579 1.22669 1.90401 1.41596C1.62199 1.56679 1.40663 1.78214 1.2558 2.06417C1.06654 2.41806 1 2.76262 1 3.7496V8.07072C1 9.0577 1.06654 9.40225 1.2558 9.75614C1.40663 10.0382 1.62199 10.2535 1.90401 10.4044C2.2579 10.5936 2.60246 10.6602 3.58944 10.6602H18.4106C19.3975 10.6602 19.7421 10.5936 20.096 10.4044C20.378 10.2535 20.5934 10.0382 20.7442 9.75614C20.9335 9.40225 21 9.0577 21 8.07072V3.7496C21 2.76262 20.9335 2.41806 20.7442 2.06417C20.5934 1.78214 20.378 1.56679 20.096 1.41596C19.7421 1.22669 19.3975 1.16016 18.4106 1.16016H3.58944ZM24.5 5.85016C24.5 7.08673 23 7.85016 23 7.85016V3.85016C23 3.85016 24.5 4.61359 24.5 5.85016Z" fill="#0B0B0B"/>
<rect id="Rectangle_2" x="2" y="2.07666" width="18" height="7.66667" rx="1.6" fill="#0B0B0B"/>
</g>
</svg>
